<svg width="546" height="883" viewBox="0 0 546 883" fill="none" xmlns="http://www.w3.org/2000/svg">
<path d="M230.264 365.064C237.112 365.064 253.804 368.203 280.34 374.48C306.876 380.757 327.277 383.896 341.544 383.896C355.811 383.896 368.223 383.325 378.78 382.184C389.337 380.757 396.613 379.188 400.608 377.476C410.309 373.196 417.585 371.056 422.436 371.056C427.572 371.056 431.852 372.197 435.276 374.48C438.985 376.477 440.84 378.189 440.84 379.616C440.84 381.043 440.697 382.041 440.412 382.612C440.412 382.897 440.127 383.468 439.556 384.324C438.985 384.895 438.272 385.465 437.416 386.036C436.56 386.607 435.133 387.605 433.136 389.032C431.424 390.173 429.427 391.6 427.144 393.312C420.011 398.733 412.877 404.725 405.744 411.288L94.16 698.048C108.712 696.336 122.408 695.48 135.248 695.48C148.373 695.48 164.352 698.761 183.184 705.324C202.016 711.601 219.849 719.448 236.684 728.864C253.519 737.995 270.496 747.125 287.616 756.256C328.419 778.512 365.227 789.64 398.04 789.64C422.579 789.64 443.408 784.504 460.528 774.232C477.648 763.96 486.208 754.829 486.208 746.84C486.208 743.987 487.064 742.56 488.776 742.56C489.917 742.56 491.915 745.413 494.768 751.12C497.621 756.827 499.048 760.536 499.048 762.248C494.483 773.376 486.493 783.791 475.08 793.492C469.944 797.772 463.096 801.624 454.536 805.048C446.261 808.472 437.131 810.184 427.144 810.184C404.603 810.184 379.208 805.476 350.96 796.06C322.997 786.929 297.888 776.8 275.632 765.672C253.661 754.544 229.836 744.272 204.156 734.856C178.761 725.725 157.361 721.16 139.956 721.16C122.551 721.16 107.713 722.444 95.444 725.012C83.46 727.295 74.1867 729.72 67.624 732.288C61.0613 734.571 56.068 735.712 52.644 735.712C49.5053 735.712 45.0827 734.428 39.376 731.86C33.9547 729.007 29.96 727.295 27.392 726.724C25.1093 726.153 23.6827 725.868 23.112 725.868C22.5413 725.583 22.256 724.869 22.256 723.728C22.256 722.587 24.824 719.448 29.96 714.312L385.2 393.312C366.083 397.307 346.823 399.304 327.42 399.304C308.017 399.304 287.616 396.593 266.216 391.172C245.101 385.751 224.843 383.04 205.44 383.04C186.323 383.04 170.915 388.461 159.216 399.304C153.509 405.011 150.371 407.864 149.8 407.864C148.088 407.864 147.232 407.008 147.232 405.296C147.232 403.584 150.371 399.589 156.648 393.312C174.909 374.48 199.448 365.064 230.264 365.064Z" fill="black"/>
<path d="M0.864 580L24.864 537.568H13.248C11.2 537.568 9.6 538.208 8.448 539.488C7.296 540.768 6.144 543.136 4.992 546.592L3.168 545.92V533.92L4.128 533.056L5.28 533.92C6.368 534.752 8.736 535.168 12.384 535.168H36.48L12.576 577.6H25.44C27.296 577.6 28.768 576.928 29.856 575.584C31.008 574.24 32.16 571.904 33.312 568.576L35.232 569.248V580.768L34.272 581.632C33.376 580.992 32.32 580.544 31.104 580.288C29.952 580.096 28.352 580 26.304 580H0.864ZM76.4828 571.36C77.1228 573.152 77.8268 574.592 78.5948 575.68C79.3628 576.704 80.5468 577.824 82.1468 579.04L81.2828 580H63.9068L63.3308 578.272L64.7708 577.888C65.7308 577.568 66.4028 577.184 66.7868 576.736C67.2348 576.224 67.4588 575.552 67.4588 574.72C67.4588 574.208 67.1068 572.896 66.4028 570.784L64.4828 565.12H49.6028L48.8348 567.52C47.8748 570.4 47.3948 572.576 47.3948 574.048C47.3948 575.456 47.6508 576.736 48.1628 577.888L48.8348 579.04L47.9708 580H37.4108L36.7387 578.272L38.1788 577.888C39.7148 577.44 40.8668 576.832 41.6348 576.064C42.4028 575.232 43.1388 573.792 43.8428 571.744L53.6348 543.52C54.0828 541.92 54.3068 540.8 54.3068 540.16C54.3068 538.752 53.2828 537.76 51.2348 537.184L50.1788 536.896L50.8508 535.168H63.9068L76.4828 571.36ZM63.5228 562.432L56.9948 542.944L50.5628 562.432H63.5228ZM104.042 580.864C97.1943 580.864 91.9463 578.688 88.2983 574.336C84.7143 569.984 82.9223 564.416 82.9223 557.632C82.9223 550.848 84.7463 545.28 88.3943 540.928C92.0423 536.512 97.3223 534.304 104.234 534.304C108.65 534.304 112.234 535.168 114.986 536.896C117.802 538.56 119.21 540.768 119.21 543.52C119.21 546.208 118.09 548.32 115.85 549.856C113.61 551.392 110.794 552.16 107.402 552.16C109.322 550.112 110.282 547.328 110.282 543.808C110.282 541.76 109.642 540.064 108.362 538.72C107.146 537.312 105.546 536.608 103.562 536.608C99.9143 536.608 97.2263 538.688 95.4983 542.848C93.8343 547.008 93.0023 551.936 93.0023 557.632C93.0023 561.28 93.5143 564.608 94.5383 567.616C95.6263 570.624 97.1623 573.024 99.1463 574.816C101.194 576.544 103.53 577.408 106.154 577.408C109.162 577.408 111.658 576.8 113.642 575.584C115.69 574.304 117.546 572.544 119.21 570.304L120.362 571.168C118.634 574.048 116.394 576.384 113.642 578.176C110.954 579.968 107.754 580.864 104.042 580.864ZM163.95 567.904C163.95 570.144 164.046 571.84 164.238 572.992C164.43 574.144 164.814 575.136 165.39 575.968C165.966 576.8 166.862 577.76 168.078 578.848L167.31 580H150.414L149.838 578.272C151.31 577.888 152.366 577.504 153.006 577.12C153.71 576.672 154.158 576.096 154.35 575.392C154.606 574.624 154.734 573.504 154.734 572.032V558.592H137.742V567.904C137.742 570.144 137.838 571.872 138.03 573.088C138.222 574.24 138.574 575.232 139.086 576.064C139.662 576.832 140.558 577.76 141.774 578.848L141.102 580H124.206L123.63 578.272C125.742 577.696 127.086 577.056 127.662 576.352C128.238 575.584 128.526 574.144 128.526 572.032V547.072C128.526 544 128.27 541.856 127.758 540.64C127.31 539.36 126.158 537.952 124.302 536.416L125.07 535.168H141.39L142.062 536.704C140.206 537.792 139.022 538.816 138.51 539.776C137.998 540.672 137.742 542.304 137.742 544.672V555.904H154.734V547.072C154.734 544 154.478 541.856 153.966 540.64C153.518 539.36 152.366 537.952 150.51 536.416L151.278 535.168H167.598L168.366 536.704C166.51 537.792 165.294 538.816 164.718 539.776C164.206 540.672 163.95 542.304 163.95 544.672V567.904ZM210.92 571.36C211.56 573.152 212.264 574.592 213.032 575.68C213.8 576.704 214.984 577.824 216.584 579.04L215.72 580H198.344L197.768 578.272L199.208 577.888C200.168 577.568 200.84 577.184 201.224 576.736C201.672 576.224 201.896 575.552 201.896 574.72C201.896 574.208 201.544 572.896 200.84 570.784L198.92 565.12H184.04L183.272 567.52C182.312 570.4 181.832 572.576 181.832 574.048C181.832 575.456 182.088 576.736 182.6 577.888L183.272 579.04L182.408 580H171.848L171.176 578.272L172.616 577.888C174.152 577.44 175.304 576.832 176.072 576.064C176.84 575.232 177.576 573.792 178.28 571.744L188.072 543.52C188.52 541.92 188.744 540.8 188.744 540.16C188.744 538.752 187.72 537.76 185.672 537.184L184.616 536.896L185.288 535.168H198.344L210.92 571.36ZM197.96 562.432L191.432 542.944L185 562.432H197.96ZM261.107 576.736C258.803 579.488 255.795 580.864 252.083 580.864C249.779 580.864 247.955 580.352 246.611 579.328C245.331 578.24 244.211 576.416 243.251 573.856L240.467 565.408C239.827 563.68 239.251 562.432 238.739 561.664C238.227 560.832 237.427 560.192 236.339 559.744L234.707 558.88L234.899 557.92C235.411 557.984 236.083 558.016 236.915 558.016C237.683 558.016 238.227 557.984 238.547 557.92C240.915 557.536 242.771 556.448 244.115 554.656C245.459 552.864 246.131 550.56 246.131 547.744C246.131 544.352 245.331 541.664 243.731 539.68C242.131 537.632 240.019 536.608 237.395 536.608C234.515 536.608 233.075 537.952 233.075 540.64V567.424C233.075 569.92 233.267 571.936 233.651 573.472C234.099 574.944 234.867 576.416 235.955 577.888L236.723 579.04L235.955 580H219.251L218.579 578.272C220.179 577.824 221.331 577.408 222.035 577.024C222.739 576.576 223.219 576 223.475 575.296C223.731 574.592 223.859 573.504 223.859 572.032V546.496C223.859 544.256 223.667 542.56 223.283 541.408C222.963 540.192 222.163 539.2 220.883 538.432L219.73 537.76L220.115 536.512C222.099 535.872 224.627 535.36 227.699 534.976C230.835 534.528 233.619 534.304 236.051 534.304C242.131 534.304 246.931 535.52 250.451 537.952C253.971 540.384 255.731 543.712 255.731 547.936C255.731 550.88 254.771 553.504 252.851 555.808C250.995 558.048 248.595 559.552 245.651 560.32C247.955 561.344 249.555 563.072 250.451 565.504L253.811 574.912C254.323 576.448 255.315 577.216 256.787 577.216C257.939 577.216 259.123 576.704 260.339 575.68L261.107 576.736ZM262.373 578.272C263.845 577.888 264.901 577.504 265.541 577.12C266.245 576.672 266.693 576.096 266.885 575.392C267.141 574.624 267.269 573.504 267.269 572.032V547.072C267.269 544 267.013 541.856 266.501 540.64C266.053 539.36 264.901 537.952 263.045 536.416L263.909 535.168H280.133L280.805 536.704C278.949 537.792 277.765 538.816 277.253 539.776C276.741 540.672 276.485 542.304 276.485 544.672V568.288C276.485 571.296 276.709 573.44 277.157 574.72C277.669 575.936 278.821 577.312 280.613 578.848L279.845 580H263.045L262.373 578.272ZM323.233 571.36C323.873 573.152 324.577 574.592 325.345 575.68C326.113 576.704 327.297 577.824 328.897 579.04L328.033 580H310.657L310.081 578.272L311.521 577.888C312.481 577.568 313.153 577.184 313.537 576.736C313.985 576.224 314.209 575.552 314.209 574.72C314.209 574.208 313.857 572.896 313.153 570.784L311.233 565.12H296.353L295.585 567.52C294.625 570.4 294.145 572.576 294.145 574.048C294.145 575.456 294.401 576.736 294.913 577.888L295.585 579.04L294.721 580H284.161L283.489 578.272L284.929 577.888C286.465 577.44 287.617 576.832 288.385 576.064C289.153 575.232 289.889 573.792 290.593 571.744L300.385 543.52C300.833 541.92 301.057 540.8 301.057 540.16C301.057 538.752 300.033 537.76 297.985 537.184L296.929 536.896L297.601 535.168H310.657L323.233 571.36ZM310.273 562.432L303.745 542.944L297.313 562.432H310.273ZM352.488 547.552C352.488 545.248 352.392 543.52 352.2 542.368C352.008 541.152 351.624 540.128 351.048 539.296C350.472 538.464 349.544 537.504 348.264 536.416L349.128 535.168H365.832L366.504 536.704C365.032 537.536 363.976 538.272 363.336 538.912C362.696 539.552 362.248 540.352 361.992 541.312C361.8 542.272 361.704 543.776 361.704 545.824V572.608C361.704 574.656 361.992 576 362.568 576.64C363.144 577.28 364.424 577.6 366.408 577.6H370.056C371.912 577.6 373.384 576.992 374.472 575.776C375.56 574.496 376.68 572.096 377.832 568.576L379.752 569.248V580.768L378.792 581.632C377.96 580.992 377.032 580.544 376.008 580.288C374.984 580.096 373.448 580 371.4 580H347.784L347.208 578.272C348.808 577.824 349.96 577.408 350.664 577.024C351.368 576.576 351.848 576 352.104 575.296C352.36 574.592 352.488 573.504 352.488 572.032V547.552ZM388.774 547.744C388.774 545.184 388.582 543.168 388.198 541.696C387.814 540.224 387.078 538.752 385.99 537.28L385.222 536.224L385.99 535.168H407.206C410.726 535.168 413.094 534.752 414.31 533.92L415.462 533.056L416.422 533.92V545.92L414.502 546.592C413.35 543.136 412.198 540.768 411.046 539.488C409.958 538.208 408.39 537.568 406.342 537.568H402.022C400.358 537.568 399.27 537.888 398.758 538.528C398.246 539.104 397.99 540.384 397.99 542.368V556H404.902C406.822 556 408.23 555.808 409.126 555.424C410.086 555.04 410.79 554.272 411.238 553.12L411.718 551.776L412.966 552.544V563.296L410.854 564.064L410.47 561.952C410.214 560.608 409.51 559.68 408.358 559.168C407.206 558.656 405.35 558.4 402.79 558.4H397.99V572.896C397.99 574.816 398.278 576.096 398.854 576.736C399.43 577.312 400.71 577.6 402.694 577.6H407.398C409.318 577.6 410.822 576.928 411.91 575.584C413.062 574.24 414.15 571.904 415.174 568.576L417.19 569.248V580.768L416.134 581.632C415.238 580.992 414.214 580.544 413.062 580.288C411.91 580.096 410.31 580 408.262 580H384.166L383.494 578.272C385.094 577.824 386.246 577.408 386.95 577.024C387.654 576.576 388.134 576 388.39 575.296C388.646 574.592 388.774 573.504 388.774 572.032V547.744ZM463.854 537.28C462.83 538.752 462.094 540.256 461.646 541.792C461.262 543.328 461.07 545.312 461.07 547.744V574.528C461.07 575.872 461.358 576.992 461.934 577.888L462.798 579.04L461.934 580H451.95L430.638 543.232V567.424C430.638 569.984 430.83 572.032 431.214 573.568C431.662 575.04 432.398 576.48 433.422 577.888L434.286 579.04L433.422 580H422.862L422.19 578.272C423.854 577.824 425.006 577.408 425.646 577.024C426.35 576.64 426.83 576.096 427.086 575.392C427.342 574.688 427.47 573.568 427.47 572.032V546.688C427.47 543.872 427.214 541.824 426.702 540.544C426.19 539.264 425.07 537.888 423.342 536.416L424.11 535.168H436.59L457.998 572.224V543.136C457.998 541.216 457.582 539.872 456.75 539.104C455.982 538.336 454.35 537.6 451.854 536.896L452.43 535.168H463.854L464.718 536.224L463.854 537.28ZM491.621 572.032C491.621 573.504 491.749 574.624 492.005 575.392C492.325 576.096 492.837 576.64 493.541 577.024C494.245 577.408 495.397 577.824 496.997 578.272L496.325 580H479.621L478.853 579.04L479.621 577.888C480.709 576.416 481.445 574.944 481.829 573.472C482.277 571.936 482.469 569.92 482.405 567.424V541.6C482.405 540 482.245 538.944 481.924 538.432C481.669 537.856 481.125 537.568 480.293 537.568H479.237C477.061 537.568 475.429 538.24 474.341 539.584C473.253 540.864 472.133 543.2 470.98 546.592L469.061 545.92V533.92L470.021 533.056L471.173 533.92C472.389 534.752 474.757 535.168 478.277 535.168H495.845C499.365 535.168 501.733 534.752 502.949 533.92L504.101 533.056L505.157 533.92V545.92L503.141 546.592C501.925 543.072 500.773 540.704 499.685 539.488C498.661 538.208 497.093 537.568 494.981 537.568H493.733C492.901 537.568 492.325 537.856 492.005 538.432C491.749 538.944 491.621 540 491.621 541.6V572.032ZM507.302 580L531.302 537.568H519.686C517.638 537.568 516.038 538.208 514.886 539.488C513.734 540.768 512.582 543.136 511.43 546.592L509.605 545.92V533.92L510.566 533.056L511.718 533.92C512.806 534.752 515.174 535.168 518.822 535.168H542.918L519.014 577.6H531.878C533.734 577.6 535.206 576.928 536.294 575.584C537.446 574.24 538.598 571.904 539.75 568.576L541.67 569.248V580.768L540.71 581.632C539.814 580.992 538.758 580.544 537.542 580.288C536.39 580.096 534.79 580 532.742 580H507.302Z" fill="white"/>
</svg>
