<svg width="774" height="932" viewBox="0 0 774 932" fill="none" xmlns="http://www.w3.org/2000/svg">
<path d="M263.264 365.064C270.112 365.064 286.804 368.203 313.34 374.48C339.876 380.757 360.277 383.896 374.544 383.896C388.811 383.896 401.223 383.325 411.78 382.184C422.337 380.757 429.613 379.188 433.608 377.476C443.309 373.196 450.585 371.056 455.436 371.056C460.572 371.056 464.852 372.197 468.276 374.48C471.985 376.477 473.84 378.189 473.84 379.616C473.84 381.043 473.697 382.041 473.412 382.612C473.412 382.897 473.127 383.468 472.556 384.324C471.985 384.895 471.272 385.465 470.416 386.036C469.56 386.607 468.133 387.605 466.136 389.032C464.424 390.173 462.427 391.6 460.144 393.312C453.011 398.733 445.877 404.725 438.744 411.288L127.16 698.048C141.712 696.336 155.408 695.48 168.248 695.48C181.373 695.48 197.352 698.761 216.184 705.324C235.016 711.601 252.849 719.448 269.684 728.864C286.519 737.995 303.496 747.125 320.616 756.256C361.419 778.512 398.227 789.64 431.04 789.64C455.579 789.64 476.408 784.504 493.528 774.232C510.648 763.96 519.208 754.829 519.208 746.84C519.208 743.987 520.064 742.56 521.776 742.56C522.917 742.56 524.915 745.413 527.768 751.12C530.621 756.827 532.048 760.536 532.048 762.248C527.483 773.376 519.493 783.791 508.08 793.492C502.944 797.772 496.096 801.624 487.536 805.048C479.261 808.472 470.131 810.184 460.144 810.184C437.603 810.184 412.208 805.476 383.96 796.06C355.997 786.929 330.888 776.8 308.632 765.672C286.661 754.544 262.836 744.272 237.156 734.856C211.761 725.725 190.361 721.16 172.956 721.16C155.551 721.16 140.713 722.444 128.444 725.012C116.46 727.295 107.187 729.72 100.624 732.288C94.0613 734.571 89.068 735.712 85.644 735.712C82.5053 735.712 78.0827 734.428 72.376 731.86C66.9547 729.007 62.96 727.295 60.392 726.724C58.1093 726.153 56.6827 725.868 56.112 725.868C55.5413 725.583 55.256 724.869 55.256 723.728C55.256 722.587 57.824 719.448 62.96 714.312L418.2 393.312C399.083 397.307 379.823 399.304 360.42 399.304C341.017 399.304 320.616 396.593 299.216 391.172C278.101 385.751 257.843 383.04 238.44 383.04C219.323 383.04 203.915 388.461 192.216 399.304C186.509 405.011 183.371 407.864 182.8 407.864C181.088 407.864 180.232 407.008 180.232 405.296C180.232 403.584 183.371 399.589 189.648 393.312C207.909 374.48 232.448 365.064 263.264 365.064Z" fill="black"/>
<path d="M0.864 874L24.864 831.568H13.248C11.2 831.568 9.6 832.208 8.448 833.488C7.296 834.768 6.144 837.136 4.992 840.592L3.168 839.92V827.92L4.128 827.056L5.28 827.92C6.368 828.752 8.736 829.168 12.384 829.168H36.48L12.576 871.6H25.44C27.296 871.6 28.768 870.928 29.856 869.584C31.008 868.24 32.16 865.904 33.312 862.576L35.232 863.248V874.768L34.272 875.632C33.376 874.992 32.32 874.544 31.104 874.288C29.952 874.096 28.352 874 26.304 874H0.864ZM76.4828 865.36C77.1228 867.152 77.8268 868.592 78.5948 869.68C79.3628 870.704 80.5468 871.824 82.1468 873.04L81.2828 874H63.9068L63.3308 872.272L64.7708 871.888C65.7308 871.568 66.4028 871.184 66.7868 870.736C67.2348 870.224 67.4588 869.552 67.4588 868.72C67.4588 868.208 67.1068 866.896 66.4028 864.784L64.4828 859.12H49.6028L48.8348 861.52C47.8748 864.4 47.3948 866.576 47.3948 868.048C47.3948 869.456 47.6508 870.736 48.1628 871.888L48.8348 873.04L47.9708 874H37.4108L36.7387 872.272L38.1788 871.888C39.7148 871.44 40.8668 870.832 41.6348 870.064C42.4028 869.232 43.1388 867.792 43.8428 865.744L53.6348 837.52C54.0828 835.92 54.3068 834.8 54.3068 834.16C54.3068 832.752 53.2828 831.76 51.2348 831.184L50.1788 830.896L50.8508 829.168H63.9068L76.4828 865.36ZM63.5228 856.432L56.9948 836.944L50.5628 856.432H63.5228ZM104.042 874.864C97.1943 874.864 91.9463 872.688 88.2983 868.336C84.7143 863.984 82.9223 858.416 82.9223 851.632C82.9223 844.848 84.7463 839.28 88.3943 834.928C92.0423 830.512 97.3223 828.304 104.234 828.304C108.65 828.304 112.234 829.168 114.986 830.896C117.802 832.56 119.21 834.768 119.21 837.52C119.21 840.208 118.09 842.32 115.85 843.856C113.61 845.392 110.794 846.16 107.402 846.16C109.322 844.112 110.282 841.328 110.282 837.808C110.282 835.76 109.642 834.064 108.362 832.72C107.146 831.312 105.546 830.608 103.562 830.608C99.9143 830.608 97.2263 832.688 95.4983 836.848C93.8343 841.008 93.0023 845.936 93.0023 851.632C93.0023 855.28 93.5143 858.608 94.5383 861.616C95.6263 864.624 97.1623 867.024 99.1463 868.816C101.194 870.544 103.53 871.408 106.154 871.408C109.162 871.408 111.658 870.8 113.642 869.584C115.69 868.304 117.546 866.544 119.21 864.304L120.362 865.168C118.634 868.048 116.394 870.384 113.642 872.176C110.954 873.968 107.754 874.864 104.042 874.864ZM163.95 861.904C163.95 864.144 164.046 865.84 164.238 866.992C164.43 868.144 164.814 869.136 165.39 869.968C165.966 870.8 166.862 871.76 168.078 872.848L167.31 874H150.414L149.838 872.272C151.31 871.888 152.366 871.504 153.006 871.12C153.71 870.672 154.158 870.096 154.35 869.392C154.606 868.624 154.734 867.504 154.734 866.032V852.592H137.742V861.904C137.742 864.144 137.838 865.872 138.03 867.088C138.222 868.24 138.574 869.232 139.086 870.064C139.662 870.832 140.558 871.76 141.774 872.848L141.102 874H124.206L123.63 872.272C125.742 871.696 127.086 871.056 127.662 870.352C128.238 869.584 128.526 868.144 128.526 866.032V841.072C128.526 838 128.27 835.856 127.758 834.64C127.31 833.36 126.158 831.952 124.302 830.416L125.07 829.168H141.39L142.062 830.704C140.206 831.792 139.022 832.816 138.51 833.776C137.998 834.672 137.742 836.304 137.742 838.672V849.904H154.734V841.072C154.734 838 154.478 835.856 153.966 834.64C153.518 833.36 152.366 831.952 150.51 830.416L151.278 829.168H167.598L168.366 830.704C166.51 831.792 165.294 832.816 164.718 833.776C164.206 834.672 163.95 836.304 163.95 838.672V861.904ZM210.92 865.36C211.56 867.152 212.264 868.592 213.032 869.68C213.8 870.704 214.984 871.824 216.584 873.04L215.72 874H198.344L197.768 872.272L199.208 871.888C200.168 871.568 200.84 871.184 201.224 870.736C201.672 870.224 201.896 869.552 201.896 868.72C201.896 868.208 201.544 866.896 200.84 864.784L198.92 859.12H184.04L183.272 861.52C182.312 864.4 181.832 866.576 181.832 868.048C181.832 869.456 182.088 870.736 182.6 871.888L183.272 873.04L182.408 874H171.848L171.176 872.272L172.616 871.888C174.152 871.44 175.304 870.832 176.072 870.064C176.84 869.232 177.576 867.792 178.28 865.744L188.072 837.52C188.52 835.92 188.744 834.8 188.744 834.16C188.744 832.752 187.72 831.76 185.672 831.184L184.616 830.896L185.288 829.168H198.344L210.92 865.36ZM197.96 856.432L191.432 836.944L185 856.432H197.96ZM261.107 870.736C258.803 873.488 255.795 874.864 252.083 874.864C249.779 874.864 247.955 874.352 246.611 873.328C245.331 872.24 244.211 870.416 243.251 867.856L240.467 859.408C239.827 857.68 239.251 856.432 238.739 855.664C238.227 854.832 237.427 854.192 236.339 853.744L234.707 852.88L234.899 851.92C235.411 851.984 236.083 852.016 236.915 852.016C237.683 852.016 238.227 851.984 238.547 851.92C240.915 851.536 242.771 850.448 244.115 848.656C245.459 846.864 246.131 844.56 246.131 841.744C246.131 838.352 245.331 835.664 243.731 833.68C242.131 831.632 240.019 830.608 237.395 830.608C234.515 830.608 233.075 831.952 233.075 834.64V861.424C233.075 863.92 233.267 865.936 233.651 867.472C234.099 868.944 234.867 870.416 235.955 871.888L236.723 873.04L235.955 874H219.251L218.579 872.272C220.179 871.824 221.331 871.408 222.035 871.024C222.739 870.576 223.219 870 223.475 869.296C223.731 868.592 223.859 867.504 223.859 866.032V840.496C223.859 838.256 223.667 836.56 223.283 835.408C222.963 834.192 222.163 833.2 220.883 832.432L219.73 831.76L220.115 830.512C222.099 829.872 224.627 829.36 227.699 828.976C230.835 828.528 233.619 828.304 236.051 828.304C242.131 828.304 246.931 829.52 250.451 831.952C253.971 834.384 255.731 837.712 255.731 841.936C255.731 844.88 254.771 847.504 252.851 849.808C250.995 852.048 248.595 853.552 245.651 854.32C247.955 855.344 249.555 857.072 250.451 859.504L253.811 868.912C254.323 870.448 255.315 871.216 256.787 871.216C257.939 871.216 259.123 870.704 260.339 869.68L261.107 870.736ZM262.373 872.272C263.845 871.888 264.901 871.504 265.541 871.12C266.245 870.672 266.693 870.096 266.885 869.392C267.141 868.624 267.269 867.504 267.269 866.032V841.072C267.269 838 267.013 835.856 266.501 834.64C266.053 833.36 264.901 831.952 263.045 830.416L263.909 829.168H280.133L280.805 830.704C278.949 831.792 277.765 832.816 277.253 833.776C276.741 834.672 276.485 836.304 276.485 838.672V862.288C276.485 865.296 276.709 867.44 277.157 868.72C277.669 869.936 278.821 871.312 280.613 872.848L279.845 874H263.045L262.373 872.272ZM323.233 865.36C323.873 867.152 324.577 868.592 325.345 869.68C326.113 870.704 327.297 871.824 328.897 873.04L328.033 874H310.657L310.081 872.272L311.521 871.888C312.481 871.568 313.153 871.184 313.537 870.736C313.985 870.224 314.209 869.552 314.209 868.72C314.209 868.208 313.857 866.896 313.153 864.784L311.233 859.12H296.353L295.585 861.52C294.625 864.4 294.145 866.576 294.145 868.048C294.145 869.456 294.401 870.736 294.913 871.888L295.585 873.04L294.721 874H284.161L283.489 872.272L284.929 871.888C286.465 871.44 287.617 870.832 288.385 870.064C289.153 869.232 289.889 867.792 290.593 865.744L300.385 837.52C300.833 835.92 301.057 834.8 301.057 834.16C301.057 832.752 300.033 831.76 297.985 831.184L296.929 830.896L297.601 829.168H310.657L323.233 865.36ZM310.273 856.432L303.745 836.944L297.313 856.432H310.273ZM352.488 841.552C352.488 839.248 352.392 837.52 352.2 836.368C352.008 835.152 351.624 834.128 351.048 833.296C350.472 832.464 349.544 831.504 348.264 830.416L349.128 829.168H365.832L366.504 830.704C365.032 831.536 363.976 832.272 363.336 832.912C362.696 833.552 362.248 834.352 361.992 835.312C361.8 836.272 361.704 837.776 361.704 839.824V866.608C361.704 868.656 361.992 870 362.568 870.64C363.144 871.28 364.424 871.6 366.408 871.6H370.056C371.912 871.6 373.384 870.992 374.472 869.776C375.56 868.496 376.68 866.096 377.832 862.576L379.752 863.248V874.768L378.792 875.632C377.96 874.992 377.032 874.544 376.008 874.288C374.984 874.096 373.448 874 371.4 874H347.784L347.208 872.272C348.808 871.824 349.96 871.408 350.664 871.024C351.368 870.576 351.848 870 352.104 869.296C352.36 868.592 352.488 867.504 352.488 866.032V841.552ZM388.774 841.744C388.774 839.184 388.582 837.168 388.198 835.696C387.814 834.224 387.078 832.752 385.99 831.28L385.222 830.224L385.99 829.168H407.206C410.726 829.168 413.094 828.752 414.31 827.92L415.462 827.056L416.422 827.92V839.92L414.502 840.592C413.35 837.136 412.198 834.768 411.046 833.488C409.958 832.208 408.39 831.568 406.342 831.568H402.022C400.358 831.568 399.27 831.888 398.758 832.528C398.246 833.104 397.99 834.384 397.99 836.368V850H404.902C406.822 850 408.23 849.808 409.126 849.424C410.086 849.04 410.79 848.272 411.238 847.12L411.718 845.776L412.966 846.544V857.296L410.854 858.064L410.47 855.952C410.214 854.608 409.51 853.68 408.358 853.168C407.206 852.656 405.35 852.4 402.79 852.4H397.99V866.896C397.99 868.816 398.278 870.096 398.854 870.736C399.43 871.312 400.71 871.6 402.694 871.6H407.398C409.318 871.6 410.822 870.928 411.91 869.584C413.062 868.24 414.15 865.904 415.174 862.576L417.19 863.248V874.768L416.134 875.632C415.238 874.992 414.214 874.544 413.062 874.288C411.91 874.096 410.31 874 408.262 874H384.166L383.494 872.272C385.094 871.824 386.246 871.408 386.95 871.024C387.654 870.576 388.134 870 388.39 869.296C388.646 868.592 388.774 867.504 388.774 866.032V841.744ZM463.854 831.28C462.83 832.752 462.094 834.256 461.646 835.792C461.262 837.328 461.07 839.312 461.07 841.744V868.528C461.07 869.872 461.358 870.992 461.934 871.888L462.798 873.04L461.934 874H451.95L430.638 837.232V861.424C430.638 863.984 430.83 866.032 431.214 867.568C431.662 869.04 432.398 870.48 433.422 871.888L434.286 873.04L433.422 874H422.862L422.19 872.272C423.854 871.824 425.006 871.408 425.646 871.024C426.35 870.64 426.83 870.096 427.086 869.392C427.342 868.688 427.47 867.568 427.47 866.032V840.688C427.47 837.872 427.214 835.824 426.702 834.544C426.19 833.264 425.07 831.888 423.342 830.416L424.11 829.168H436.59L457.998 866.224V837.136C457.998 835.216 457.582 833.872 456.75 833.104C455.982 832.336 454.35 831.6 451.854 830.896L452.43 829.168H463.854L464.718 830.224L463.854 831.28ZM491.621 866.032C491.621 867.504 491.749 868.624 492.005 869.392C492.325 870.096 492.837 870.64 493.541 871.024C494.245 871.408 495.397 871.824 496.997 872.272L496.325 874H479.621L478.853 873.04L479.621 871.888C480.709 870.416 481.445 868.944 481.829 867.472C482.277 865.936 482.469 863.92 482.405 861.424V835.6C482.405 834 482.245 832.944 481.924 832.432C481.669 831.856 481.125 831.568 480.293 831.568H479.237C477.061 831.568 475.429 832.24 474.341 833.584C473.253 834.864 472.133 837.2 470.98 840.592L469.061 839.92V827.92L470.021 827.056L471.173 827.92C472.389 828.752 474.757 829.168 478.277 829.168H495.845C499.365 829.168 501.733 828.752 502.949 827.92L504.101 827.056L505.157 827.92V839.92L503.141 840.592C501.925 837.072 500.773 834.704 499.685 833.488C498.661 832.208 497.093 831.568 494.981 831.568H493.733C492.901 831.568 492.325 831.856 492.005 832.432C491.749 832.944 491.621 834 491.621 835.6V866.032ZM507.302 874L531.302 831.568H519.686C517.638 831.568 516.038 832.208 514.886 833.488C513.734 834.768 512.582 837.136 511.43 840.592L509.605 839.92V827.92L510.566 827.056L511.718 827.92C512.806 828.752 515.174 829.168 518.822 829.168H542.918L519.014 871.6H531.878C533.734 871.6 535.206 870.928 536.294 869.584C537.446 868.24 538.598 865.904 539.75 862.576L541.67 863.248V874.768L540.71 875.632C539.814 874.992 538.758 874.544 537.542 874.288C536.39 874.096 534.79 874 532.742 874H507.302Z" fill="black"/>
</svg>
